<?xml version="1.0" encoding="UTF-8" standalone="no"?>
<svg
   xmlns:dc="http://purl.org/dc/elements/1.1/"
   xmlns:cc="http://creativecommons.org/ns#"
   xmlns:rdf="http://www.w3.org/1999/02/22-rdf-syntax-ns#"
   xmlns:svg="http://www.w3.org/2000/svg"
   xmlns="http://www.w3.org/2000/svg"
   xmlns:sodipodi="http://sodipodi.sourceforge.net/DTD/sodipodi-0.dtd"
   xmlns:inkscape="http://www.inkscape.org/namespaces/inkscape"
   inkscape:version="1.0 (4035a4fb49, 2020-05-01)"
   sodipodi:docname="circleСлой 6.svg"
   viewBox="0 0 226 197"
   height="197"
   width="226"
   id="svg2"
   version="1.1">
  <metadata
     id="metadata8">
    <rdf:RDF>
      <cc:Work
         rdf:about="">
        <dc:format>image/svg+xml</dc:format>
        <dc:type
           rdf:resource="http://purl.org/dc/dcmitype/StillImage" />
        <dc:title></dc:title>
      </cc:Work>
    </rdf:RDF>
  </metadata>
  <defs
     id="defs6" />
  <sodipodi:namedview
     inkscape:current-layer="g10"
     inkscape:window-maximized="1"
     inkscape:window-y="-8"
     inkscape:window-x="-8"
     inkscape:cy="98.5"
     inkscape:cx="113"
     inkscape:zoom="4.3147208"
     inkscape:object-nodes="true"
     inkscape:object-paths="true"
     showgrid="false"
     id="namedview4"
     inkscape:window-height="1017"
     inkscape:window-width="1920"
     inkscape:pageshadow="2"
     inkscape:pageopacity="0"
     guidetolerance="10"
     gridtolerance="10"
     objecttolerance="10"
     borderopacity="1"
     bordercolor="#666666"
     pagecolor="#ffffff" />
  <g
     id="g10"
     inkscape:label="Image"
     inkscape:groupmode="layer">
    <path
       id="path14"
       d="m 198.85412,10.429412 c 6.48941,18.309412 14.13764,38.241176 14.13764,38.241176 0,0 4.86706,13.442353 5.56236,25.957647 0.69529,12.515294 1.15882,31.983525 0.23176,45.425885 -0.92706,13.44235 -1.39059,15.99176 -3.94,25.72588 -2.54941,9.73412 -10.42941,29.66588 -13.67412,34.06941 -3.2447,4.40353 -7.1847,10.66118 -8.11176,11.35647 -0.92706,0.6953 -56.31882,4.40353 -56.31882,4.40353 0,0 -31.05647,-3.70823 -35.22824,-5.09882 C 97.341176,189.12 83.435294,189.81529 68.602353,181.24 53.769412,172.66471 4.8670588,153.89176 6.7211765,143.23059 8.5752941,132.56941 11.82,111.71059 19.931765,104.98941 c 8.111764,-6.721175 8.807059,-9.502351 15.29647,-8.807057 6.489412,0.695294 20.16353,3.708235 38.936471,-2.781177 18.772941,-6.489411 22.481176,5.562353 57.014114,-23.17647 34.53294,-28.738824 67.6753,-59.795294 67.6753,-59.795294 z"
       style="fill:#000000;stroke:#000000;stroke-width:1px;stroke-linecap:butt;stroke-linejoin:miter;stroke-opacity:1" />
  </g>
</svg>
